%TF.GenerationSoftware,KiCad,Pcbnew,(5.1.10)-1*%
%TF.CreationDate,2021-11-04T23:56:30-04:00*%
%TF.ProjectId,pluto12,706c7574-6f31-4322-9e6b-696361645f70,rev?*%
%TF.SameCoordinates,Original*%
%TF.FileFunction,Legend,Top*%
%TF.FilePolarity,Positive*%
%FSLAX46Y46*%
G04 Gerber Fmt 4.6, Leading zero omitted, Abs format (unit mm)*
G04 Created by KiCad (PCBNEW (5.1.10)-1) date 2021-11-04 23:56:30*
%MOMM*%
%LPD*%
G01*
G04 APERTURE LIST*
%ADD10C,0.120000*%
%ADD11C,0.150000*%
G04 APERTURE END LIST*
D10*
%TO.C,S12*%
X169545000Y-120015000D02*
X169545000Y-106045000D01*
X183515000Y-120015000D02*
X169545000Y-120015000D01*
X183515000Y-106045000D02*
X183515000Y-120015000D01*
X169545000Y-106045000D02*
X183515000Y-106045000D01*
%TO.C,S11*%
X150495000Y-120015000D02*
X150495000Y-106045000D01*
X164465000Y-120015000D02*
X150495000Y-120015000D01*
X164465000Y-106045000D02*
X164465000Y-120015000D01*
X150495000Y-106045000D02*
X164465000Y-106045000D01*
%TO.C,S10*%
X131445000Y-120015000D02*
X131445000Y-106045000D01*
X145415000Y-120015000D02*
X131445000Y-120015000D01*
X145415000Y-106045000D02*
X145415000Y-120015000D01*
X131445000Y-106045000D02*
X145415000Y-106045000D01*
%TO.C,S9*%
X112395000Y-120015000D02*
X112395000Y-106045000D01*
X126365000Y-120015000D02*
X112395000Y-120015000D01*
X126365000Y-106045000D02*
X126365000Y-120015000D01*
X112395000Y-106045000D02*
X126365000Y-106045000D01*
%TO.C,S8*%
X169545000Y-100965000D02*
X169545000Y-86995000D01*
X183515000Y-100965000D02*
X169545000Y-100965000D01*
X183515000Y-86995000D02*
X183515000Y-100965000D01*
X169545000Y-86995000D02*
X183515000Y-86995000D01*
%TO.C,S7*%
X150495000Y-100965000D02*
X150495000Y-86995000D01*
X164465000Y-100965000D02*
X150495000Y-100965000D01*
X164465000Y-86995000D02*
X164465000Y-100965000D01*
X150495000Y-86995000D02*
X164465000Y-86995000D01*
%TO.C,S6*%
X131445000Y-100965000D02*
X131445000Y-86995000D01*
X145415000Y-100965000D02*
X131445000Y-100965000D01*
X145415000Y-86995000D02*
X145415000Y-100965000D01*
X131445000Y-86995000D02*
X145415000Y-86995000D01*
%TO.C,S5*%
X112395000Y-100965000D02*
X112395000Y-86995000D01*
X126365000Y-100965000D02*
X112395000Y-100965000D01*
X126365000Y-86995000D02*
X126365000Y-100965000D01*
X112395000Y-86995000D02*
X126365000Y-86995000D01*
%TO.C,S4*%
X169545000Y-81915000D02*
X169545000Y-67945000D01*
X183515000Y-81915000D02*
X169545000Y-81915000D01*
X183515000Y-67945000D02*
X183515000Y-81915000D01*
X169545000Y-67945000D02*
X183515000Y-67945000D01*
%TO.C,S3*%
X150495000Y-81915000D02*
X150495000Y-67945000D01*
X164465000Y-81915000D02*
X150495000Y-81915000D01*
X164465000Y-67945000D02*
X164465000Y-81915000D01*
X150495000Y-67945000D02*
X164465000Y-67945000D01*
%TO.C,S2*%
X131445000Y-81915000D02*
X131445000Y-67945000D01*
X145415000Y-81915000D02*
X131445000Y-81915000D01*
X145415000Y-67945000D02*
X145415000Y-81915000D01*
X131445000Y-67945000D02*
X145415000Y-67945000D01*
%TO.C,S1*%
X112395000Y-81915000D02*
X112395000Y-67945000D01*
X126365000Y-81915000D02*
X112395000Y-81915000D01*
X126365000Y-67945000D02*
X126365000Y-81915000D01*
X112395000Y-67945000D02*
X126365000Y-67945000D01*
%TO.C,D12*%
X178650000Y-123675000D02*
X178650000Y-121435000D01*
X178650000Y-121435000D02*
X174410000Y-121435000D01*
X174410000Y-121435000D02*
X174410000Y-123675000D01*
X174410000Y-123675000D02*
X178650000Y-123675000D01*
X179300000Y-122555000D02*
X178650000Y-122555000D01*
X173760000Y-122555000D02*
X174410000Y-122555000D01*
X177930000Y-123675000D02*
X177930000Y-121435000D01*
X177810000Y-123675000D02*
X177810000Y-121435000D01*
X178050000Y-123675000D02*
X178050000Y-121435000D01*
%TO.C,D11*%
X159600000Y-123675000D02*
X159600000Y-121435000D01*
X159600000Y-121435000D02*
X155360000Y-121435000D01*
X155360000Y-121435000D02*
X155360000Y-123675000D01*
X155360000Y-123675000D02*
X159600000Y-123675000D01*
X160250000Y-122555000D02*
X159600000Y-122555000D01*
X154710000Y-122555000D02*
X155360000Y-122555000D01*
X158880000Y-123675000D02*
X158880000Y-121435000D01*
X158760000Y-123675000D02*
X158760000Y-121435000D01*
X159000000Y-123675000D02*
X159000000Y-121435000D01*
%TO.C,D10*%
X140550000Y-123675000D02*
X140550000Y-121435000D01*
X140550000Y-121435000D02*
X136310000Y-121435000D01*
X136310000Y-121435000D02*
X136310000Y-123675000D01*
X136310000Y-123675000D02*
X140550000Y-123675000D01*
X141200000Y-122555000D02*
X140550000Y-122555000D01*
X135660000Y-122555000D02*
X136310000Y-122555000D01*
X139830000Y-123675000D02*
X139830000Y-121435000D01*
X139710000Y-123675000D02*
X139710000Y-121435000D01*
X139950000Y-123675000D02*
X139950000Y-121435000D01*
%TO.C,D9*%
X121500000Y-123675000D02*
X121500000Y-121435000D01*
X121500000Y-121435000D02*
X117260000Y-121435000D01*
X117260000Y-121435000D02*
X117260000Y-123675000D01*
X117260000Y-123675000D02*
X121500000Y-123675000D01*
X122150000Y-122555000D02*
X121500000Y-122555000D01*
X116610000Y-122555000D02*
X117260000Y-122555000D01*
X120780000Y-123675000D02*
X120780000Y-121435000D01*
X120660000Y-123675000D02*
X120660000Y-121435000D01*
X120900000Y-123675000D02*
X120900000Y-121435000D01*
%TO.C,D8*%
X178650000Y-104625000D02*
X178650000Y-102385000D01*
X178650000Y-102385000D02*
X174410000Y-102385000D01*
X174410000Y-102385000D02*
X174410000Y-104625000D01*
X174410000Y-104625000D02*
X178650000Y-104625000D01*
X179300000Y-103505000D02*
X178650000Y-103505000D01*
X173760000Y-103505000D02*
X174410000Y-103505000D01*
X177930000Y-104625000D02*
X177930000Y-102385000D01*
X177810000Y-104625000D02*
X177810000Y-102385000D01*
X178050000Y-104625000D02*
X178050000Y-102385000D01*
%TO.C,D7*%
X159600000Y-104625000D02*
X159600000Y-102385000D01*
X159600000Y-102385000D02*
X155360000Y-102385000D01*
X155360000Y-102385000D02*
X155360000Y-104625000D01*
X155360000Y-104625000D02*
X159600000Y-104625000D01*
X160250000Y-103505000D02*
X159600000Y-103505000D01*
X154710000Y-103505000D02*
X155360000Y-103505000D01*
X158880000Y-104625000D02*
X158880000Y-102385000D01*
X158760000Y-104625000D02*
X158760000Y-102385000D01*
X159000000Y-104625000D02*
X159000000Y-102385000D01*
%TO.C,D6*%
X140550000Y-104625000D02*
X140550000Y-102385000D01*
X140550000Y-102385000D02*
X136310000Y-102385000D01*
X136310000Y-102385000D02*
X136310000Y-104625000D01*
X136310000Y-104625000D02*
X140550000Y-104625000D01*
X141200000Y-103505000D02*
X140550000Y-103505000D01*
X135660000Y-103505000D02*
X136310000Y-103505000D01*
X139830000Y-104625000D02*
X139830000Y-102385000D01*
X139710000Y-104625000D02*
X139710000Y-102385000D01*
X139950000Y-104625000D02*
X139950000Y-102385000D01*
%TO.C,D5*%
X121500000Y-104625000D02*
X121500000Y-102385000D01*
X121500000Y-102385000D02*
X117260000Y-102385000D01*
X117260000Y-102385000D02*
X117260000Y-104625000D01*
X117260000Y-104625000D02*
X121500000Y-104625000D01*
X122150000Y-103505000D02*
X121500000Y-103505000D01*
X116610000Y-103505000D02*
X117260000Y-103505000D01*
X120780000Y-104625000D02*
X120780000Y-102385000D01*
X120660000Y-104625000D02*
X120660000Y-102385000D01*
X120900000Y-104625000D02*
X120900000Y-102385000D01*
%TO.C,D4*%
X178650000Y-85575000D02*
X178650000Y-83335000D01*
X178650000Y-83335000D02*
X174410000Y-83335000D01*
X174410000Y-83335000D02*
X174410000Y-85575000D01*
X174410000Y-85575000D02*
X178650000Y-85575000D01*
X179300000Y-84455000D02*
X178650000Y-84455000D01*
X173760000Y-84455000D02*
X174410000Y-84455000D01*
X177930000Y-85575000D02*
X177930000Y-83335000D01*
X177810000Y-85575000D02*
X177810000Y-83335000D01*
X178050000Y-85575000D02*
X178050000Y-83335000D01*
%TO.C,D3*%
X159600000Y-85575000D02*
X159600000Y-83335000D01*
X159600000Y-83335000D02*
X155360000Y-83335000D01*
X155360000Y-83335000D02*
X155360000Y-85575000D01*
X155360000Y-85575000D02*
X159600000Y-85575000D01*
X160250000Y-84455000D02*
X159600000Y-84455000D01*
X154710000Y-84455000D02*
X155360000Y-84455000D01*
X158880000Y-85575000D02*
X158880000Y-83335000D01*
X158760000Y-85575000D02*
X158760000Y-83335000D01*
X159000000Y-85575000D02*
X159000000Y-83335000D01*
%TO.C,D2*%
X140550000Y-85575000D02*
X140550000Y-83335000D01*
X140550000Y-83335000D02*
X136310000Y-83335000D01*
X136310000Y-83335000D02*
X136310000Y-85575000D01*
X136310000Y-85575000D02*
X140550000Y-85575000D01*
X141200000Y-84455000D02*
X140550000Y-84455000D01*
X135660000Y-84455000D02*
X136310000Y-84455000D01*
X139830000Y-85575000D02*
X139830000Y-83335000D01*
X139710000Y-85575000D02*
X139710000Y-83335000D01*
X139950000Y-85575000D02*
X139950000Y-83335000D01*
%TO.C,D1*%
X121500000Y-85575000D02*
X121500000Y-83335000D01*
X121500000Y-83335000D02*
X117260000Y-83335000D01*
X117260000Y-83335000D02*
X117260000Y-85575000D01*
X117260000Y-85575000D02*
X121500000Y-85575000D01*
X122150000Y-84455000D02*
X121500000Y-84455000D01*
X116610000Y-84455000D02*
X117260000Y-84455000D01*
X120780000Y-85575000D02*
X120780000Y-83335000D01*
X120660000Y-85575000D02*
X120660000Y-83335000D01*
X120900000Y-85575000D02*
X120900000Y-83335000D01*
%TO.C,S12*%
D11*
X175291904Y-108354761D02*
X175434761Y-108402380D01*
X175672857Y-108402380D01*
X175768095Y-108354761D01*
X175815714Y-108307142D01*
X175863333Y-108211904D01*
X175863333Y-108116666D01*
X175815714Y-108021428D01*
X175768095Y-107973809D01*
X175672857Y-107926190D01*
X175482380Y-107878571D01*
X175387142Y-107830952D01*
X175339523Y-107783333D01*
X175291904Y-107688095D01*
X175291904Y-107592857D01*
X175339523Y-107497619D01*
X175387142Y-107450000D01*
X175482380Y-107402380D01*
X175720476Y-107402380D01*
X175863333Y-107450000D01*
X176815714Y-108402380D02*
X176244285Y-108402380D01*
X176530000Y-108402380D02*
X176530000Y-107402380D01*
X176434761Y-107545238D01*
X176339523Y-107640476D01*
X176244285Y-107688095D01*
X177196666Y-107497619D02*
X177244285Y-107450000D01*
X177339523Y-107402380D01*
X177577619Y-107402380D01*
X177672857Y-107450000D01*
X177720476Y-107497619D01*
X177768095Y-107592857D01*
X177768095Y-107688095D01*
X177720476Y-107830952D01*
X177149047Y-108402380D01*
X177768095Y-108402380D01*
%TO.C,S11*%
X156241904Y-108354761D02*
X156384761Y-108402380D01*
X156622857Y-108402380D01*
X156718095Y-108354761D01*
X156765714Y-108307142D01*
X156813333Y-108211904D01*
X156813333Y-108116666D01*
X156765714Y-108021428D01*
X156718095Y-107973809D01*
X156622857Y-107926190D01*
X156432380Y-107878571D01*
X156337142Y-107830952D01*
X156289523Y-107783333D01*
X156241904Y-107688095D01*
X156241904Y-107592857D01*
X156289523Y-107497619D01*
X156337142Y-107450000D01*
X156432380Y-107402380D01*
X156670476Y-107402380D01*
X156813333Y-107450000D01*
X157765714Y-108402380D02*
X157194285Y-108402380D01*
X157480000Y-108402380D02*
X157480000Y-107402380D01*
X157384761Y-107545238D01*
X157289523Y-107640476D01*
X157194285Y-107688095D01*
X158718095Y-108402380D02*
X158146666Y-108402380D01*
X158432380Y-108402380D02*
X158432380Y-107402380D01*
X158337142Y-107545238D01*
X158241904Y-107640476D01*
X158146666Y-107688095D01*
%TO.C,S10*%
X137191904Y-108354761D02*
X137334761Y-108402380D01*
X137572857Y-108402380D01*
X137668095Y-108354761D01*
X137715714Y-108307142D01*
X137763333Y-108211904D01*
X137763333Y-108116666D01*
X137715714Y-108021428D01*
X137668095Y-107973809D01*
X137572857Y-107926190D01*
X137382380Y-107878571D01*
X137287142Y-107830952D01*
X137239523Y-107783333D01*
X137191904Y-107688095D01*
X137191904Y-107592857D01*
X137239523Y-107497619D01*
X137287142Y-107450000D01*
X137382380Y-107402380D01*
X137620476Y-107402380D01*
X137763333Y-107450000D01*
X138715714Y-108402380D02*
X138144285Y-108402380D01*
X138430000Y-108402380D02*
X138430000Y-107402380D01*
X138334761Y-107545238D01*
X138239523Y-107640476D01*
X138144285Y-107688095D01*
X139334761Y-107402380D02*
X139430000Y-107402380D01*
X139525238Y-107450000D01*
X139572857Y-107497619D01*
X139620476Y-107592857D01*
X139668095Y-107783333D01*
X139668095Y-108021428D01*
X139620476Y-108211904D01*
X139572857Y-108307142D01*
X139525238Y-108354761D01*
X139430000Y-108402380D01*
X139334761Y-108402380D01*
X139239523Y-108354761D01*
X139191904Y-108307142D01*
X139144285Y-108211904D01*
X139096666Y-108021428D01*
X139096666Y-107783333D01*
X139144285Y-107592857D01*
X139191904Y-107497619D01*
X139239523Y-107450000D01*
X139334761Y-107402380D01*
%TO.C,S9*%
X118618095Y-108354761D02*
X118760952Y-108402380D01*
X118999047Y-108402380D01*
X119094285Y-108354761D01*
X119141904Y-108307142D01*
X119189523Y-108211904D01*
X119189523Y-108116666D01*
X119141904Y-108021428D01*
X119094285Y-107973809D01*
X118999047Y-107926190D01*
X118808571Y-107878571D01*
X118713333Y-107830952D01*
X118665714Y-107783333D01*
X118618095Y-107688095D01*
X118618095Y-107592857D01*
X118665714Y-107497619D01*
X118713333Y-107450000D01*
X118808571Y-107402380D01*
X119046666Y-107402380D01*
X119189523Y-107450000D01*
X119665714Y-108402380D02*
X119856190Y-108402380D01*
X119951428Y-108354761D01*
X119999047Y-108307142D01*
X120094285Y-108164285D01*
X120141904Y-107973809D01*
X120141904Y-107592857D01*
X120094285Y-107497619D01*
X120046666Y-107450000D01*
X119951428Y-107402380D01*
X119760952Y-107402380D01*
X119665714Y-107450000D01*
X119618095Y-107497619D01*
X119570476Y-107592857D01*
X119570476Y-107830952D01*
X119618095Y-107926190D01*
X119665714Y-107973809D01*
X119760952Y-108021428D01*
X119951428Y-108021428D01*
X120046666Y-107973809D01*
X120094285Y-107926190D01*
X120141904Y-107830952D01*
%TO.C,S8*%
X175768095Y-89304761D02*
X175910952Y-89352380D01*
X176149047Y-89352380D01*
X176244285Y-89304761D01*
X176291904Y-89257142D01*
X176339523Y-89161904D01*
X176339523Y-89066666D01*
X176291904Y-88971428D01*
X176244285Y-88923809D01*
X176149047Y-88876190D01*
X175958571Y-88828571D01*
X175863333Y-88780952D01*
X175815714Y-88733333D01*
X175768095Y-88638095D01*
X175768095Y-88542857D01*
X175815714Y-88447619D01*
X175863333Y-88400000D01*
X175958571Y-88352380D01*
X176196666Y-88352380D01*
X176339523Y-88400000D01*
X176910952Y-88780952D02*
X176815714Y-88733333D01*
X176768095Y-88685714D01*
X176720476Y-88590476D01*
X176720476Y-88542857D01*
X176768095Y-88447619D01*
X176815714Y-88400000D01*
X176910952Y-88352380D01*
X177101428Y-88352380D01*
X177196666Y-88400000D01*
X177244285Y-88447619D01*
X177291904Y-88542857D01*
X177291904Y-88590476D01*
X177244285Y-88685714D01*
X177196666Y-88733333D01*
X177101428Y-88780952D01*
X176910952Y-88780952D01*
X176815714Y-88828571D01*
X176768095Y-88876190D01*
X176720476Y-88971428D01*
X176720476Y-89161904D01*
X176768095Y-89257142D01*
X176815714Y-89304761D01*
X176910952Y-89352380D01*
X177101428Y-89352380D01*
X177196666Y-89304761D01*
X177244285Y-89257142D01*
X177291904Y-89161904D01*
X177291904Y-88971428D01*
X177244285Y-88876190D01*
X177196666Y-88828571D01*
X177101428Y-88780952D01*
%TO.C,S7*%
X156718095Y-89304761D02*
X156860952Y-89352380D01*
X157099047Y-89352380D01*
X157194285Y-89304761D01*
X157241904Y-89257142D01*
X157289523Y-89161904D01*
X157289523Y-89066666D01*
X157241904Y-88971428D01*
X157194285Y-88923809D01*
X157099047Y-88876190D01*
X156908571Y-88828571D01*
X156813333Y-88780952D01*
X156765714Y-88733333D01*
X156718095Y-88638095D01*
X156718095Y-88542857D01*
X156765714Y-88447619D01*
X156813333Y-88400000D01*
X156908571Y-88352380D01*
X157146666Y-88352380D01*
X157289523Y-88400000D01*
X157622857Y-88352380D02*
X158289523Y-88352380D01*
X157860952Y-89352380D01*
%TO.C,S6*%
X137668095Y-89304761D02*
X137810952Y-89352380D01*
X138049047Y-89352380D01*
X138144285Y-89304761D01*
X138191904Y-89257142D01*
X138239523Y-89161904D01*
X138239523Y-89066666D01*
X138191904Y-88971428D01*
X138144285Y-88923809D01*
X138049047Y-88876190D01*
X137858571Y-88828571D01*
X137763333Y-88780952D01*
X137715714Y-88733333D01*
X137668095Y-88638095D01*
X137668095Y-88542857D01*
X137715714Y-88447619D01*
X137763333Y-88400000D01*
X137858571Y-88352380D01*
X138096666Y-88352380D01*
X138239523Y-88400000D01*
X139096666Y-88352380D02*
X138906190Y-88352380D01*
X138810952Y-88400000D01*
X138763333Y-88447619D01*
X138668095Y-88590476D01*
X138620476Y-88780952D01*
X138620476Y-89161904D01*
X138668095Y-89257142D01*
X138715714Y-89304761D01*
X138810952Y-89352380D01*
X139001428Y-89352380D01*
X139096666Y-89304761D01*
X139144285Y-89257142D01*
X139191904Y-89161904D01*
X139191904Y-88923809D01*
X139144285Y-88828571D01*
X139096666Y-88780952D01*
X139001428Y-88733333D01*
X138810952Y-88733333D01*
X138715714Y-88780952D01*
X138668095Y-88828571D01*
X138620476Y-88923809D01*
%TO.C,S5*%
X118618095Y-89304761D02*
X118760952Y-89352380D01*
X118999047Y-89352380D01*
X119094285Y-89304761D01*
X119141904Y-89257142D01*
X119189523Y-89161904D01*
X119189523Y-89066666D01*
X119141904Y-88971428D01*
X119094285Y-88923809D01*
X118999047Y-88876190D01*
X118808571Y-88828571D01*
X118713333Y-88780952D01*
X118665714Y-88733333D01*
X118618095Y-88638095D01*
X118618095Y-88542857D01*
X118665714Y-88447619D01*
X118713333Y-88400000D01*
X118808571Y-88352380D01*
X119046666Y-88352380D01*
X119189523Y-88400000D01*
X120094285Y-88352380D02*
X119618095Y-88352380D01*
X119570476Y-88828571D01*
X119618095Y-88780952D01*
X119713333Y-88733333D01*
X119951428Y-88733333D01*
X120046666Y-88780952D01*
X120094285Y-88828571D01*
X120141904Y-88923809D01*
X120141904Y-89161904D01*
X120094285Y-89257142D01*
X120046666Y-89304761D01*
X119951428Y-89352380D01*
X119713333Y-89352380D01*
X119618095Y-89304761D01*
X119570476Y-89257142D01*
%TO.C,S4*%
X175768095Y-70254761D02*
X175910952Y-70302380D01*
X176149047Y-70302380D01*
X176244285Y-70254761D01*
X176291904Y-70207142D01*
X176339523Y-70111904D01*
X176339523Y-70016666D01*
X176291904Y-69921428D01*
X176244285Y-69873809D01*
X176149047Y-69826190D01*
X175958571Y-69778571D01*
X175863333Y-69730952D01*
X175815714Y-69683333D01*
X175768095Y-69588095D01*
X175768095Y-69492857D01*
X175815714Y-69397619D01*
X175863333Y-69350000D01*
X175958571Y-69302380D01*
X176196666Y-69302380D01*
X176339523Y-69350000D01*
X177196666Y-69635714D02*
X177196666Y-70302380D01*
X176958571Y-69254761D02*
X176720476Y-69969047D01*
X177339523Y-69969047D01*
%TO.C,S3*%
X156718095Y-70254761D02*
X156860952Y-70302380D01*
X157099047Y-70302380D01*
X157194285Y-70254761D01*
X157241904Y-70207142D01*
X157289523Y-70111904D01*
X157289523Y-70016666D01*
X157241904Y-69921428D01*
X157194285Y-69873809D01*
X157099047Y-69826190D01*
X156908571Y-69778571D01*
X156813333Y-69730952D01*
X156765714Y-69683333D01*
X156718095Y-69588095D01*
X156718095Y-69492857D01*
X156765714Y-69397619D01*
X156813333Y-69350000D01*
X156908571Y-69302380D01*
X157146666Y-69302380D01*
X157289523Y-69350000D01*
X157622857Y-69302380D02*
X158241904Y-69302380D01*
X157908571Y-69683333D01*
X158051428Y-69683333D01*
X158146666Y-69730952D01*
X158194285Y-69778571D01*
X158241904Y-69873809D01*
X158241904Y-70111904D01*
X158194285Y-70207142D01*
X158146666Y-70254761D01*
X158051428Y-70302380D01*
X157765714Y-70302380D01*
X157670476Y-70254761D01*
X157622857Y-70207142D01*
%TO.C,S2*%
X137668095Y-70254761D02*
X137810952Y-70302380D01*
X138049047Y-70302380D01*
X138144285Y-70254761D01*
X138191904Y-70207142D01*
X138239523Y-70111904D01*
X138239523Y-70016666D01*
X138191904Y-69921428D01*
X138144285Y-69873809D01*
X138049047Y-69826190D01*
X137858571Y-69778571D01*
X137763333Y-69730952D01*
X137715714Y-69683333D01*
X137668095Y-69588095D01*
X137668095Y-69492857D01*
X137715714Y-69397619D01*
X137763333Y-69350000D01*
X137858571Y-69302380D01*
X138096666Y-69302380D01*
X138239523Y-69350000D01*
X138620476Y-69397619D02*
X138668095Y-69350000D01*
X138763333Y-69302380D01*
X139001428Y-69302380D01*
X139096666Y-69350000D01*
X139144285Y-69397619D01*
X139191904Y-69492857D01*
X139191904Y-69588095D01*
X139144285Y-69730952D01*
X138572857Y-70302380D01*
X139191904Y-70302380D01*
%TO.C,S1*%
X118618095Y-70254761D02*
X118760952Y-70302380D01*
X118999047Y-70302380D01*
X119094285Y-70254761D01*
X119141904Y-70207142D01*
X119189523Y-70111904D01*
X119189523Y-70016666D01*
X119141904Y-69921428D01*
X119094285Y-69873809D01*
X118999047Y-69826190D01*
X118808571Y-69778571D01*
X118713333Y-69730952D01*
X118665714Y-69683333D01*
X118618095Y-69588095D01*
X118618095Y-69492857D01*
X118665714Y-69397619D01*
X118713333Y-69350000D01*
X118808571Y-69302380D01*
X119046666Y-69302380D01*
X119189523Y-69350000D01*
X120141904Y-70302380D02*
X119570476Y-70302380D01*
X119856190Y-70302380D02*
X119856190Y-69302380D01*
X119760952Y-69445238D01*
X119665714Y-69540476D01*
X119570476Y-69588095D01*
%TO.C,D12*%
X175315714Y-124912380D02*
X175315714Y-123912380D01*
X175553809Y-123912380D01*
X175696666Y-123960000D01*
X175791904Y-124055238D01*
X175839523Y-124150476D01*
X175887142Y-124340952D01*
X175887142Y-124483809D01*
X175839523Y-124674285D01*
X175791904Y-124769523D01*
X175696666Y-124864761D01*
X175553809Y-124912380D01*
X175315714Y-124912380D01*
X176839523Y-124912380D02*
X176268095Y-124912380D01*
X176553809Y-124912380D02*
X176553809Y-123912380D01*
X176458571Y-124055238D01*
X176363333Y-124150476D01*
X176268095Y-124198095D01*
X177220476Y-124007619D02*
X177268095Y-123960000D01*
X177363333Y-123912380D01*
X177601428Y-123912380D01*
X177696666Y-123960000D01*
X177744285Y-124007619D01*
X177791904Y-124102857D01*
X177791904Y-124198095D01*
X177744285Y-124340952D01*
X177172857Y-124912380D01*
X177791904Y-124912380D01*
X180078095Y-124807380D02*
X180078095Y-123807380D01*
X180649523Y-124807380D02*
X180220952Y-124235952D01*
X180649523Y-123807380D02*
X180078095Y-124378809D01*
%TO.C,D11*%
X156265714Y-124912380D02*
X156265714Y-123912380D01*
X156503809Y-123912380D01*
X156646666Y-123960000D01*
X156741904Y-124055238D01*
X156789523Y-124150476D01*
X156837142Y-124340952D01*
X156837142Y-124483809D01*
X156789523Y-124674285D01*
X156741904Y-124769523D01*
X156646666Y-124864761D01*
X156503809Y-124912380D01*
X156265714Y-124912380D01*
X157789523Y-124912380D02*
X157218095Y-124912380D01*
X157503809Y-124912380D02*
X157503809Y-123912380D01*
X157408571Y-124055238D01*
X157313333Y-124150476D01*
X157218095Y-124198095D01*
X158741904Y-124912380D02*
X158170476Y-124912380D01*
X158456190Y-124912380D02*
X158456190Y-123912380D01*
X158360952Y-124055238D01*
X158265714Y-124150476D01*
X158170476Y-124198095D01*
X161028095Y-124807380D02*
X161028095Y-123807380D01*
X161599523Y-124807380D02*
X161170952Y-124235952D01*
X161599523Y-123807380D02*
X161028095Y-124378809D01*
%TO.C,D10*%
X137215714Y-124912380D02*
X137215714Y-123912380D01*
X137453809Y-123912380D01*
X137596666Y-123960000D01*
X137691904Y-124055238D01*
X137739523Y-124150476D01*
X137787142Y-124340952D01*
X137787142Y-124483809D01*
X137739523Y-124674285D01*
X137691904Y-124769523D01*
X137596666Y-124864761D01*
X137453809Y-124912380D01*
X137215714Y-124912380D01*
X138739523Y-124912380D02*
X138168095Y-124912380D01*
X138453809Y-124912380D02*
X138453809Y-123912380D01*
X138358571Y-124055238D01*
X138263333Y-124150476D01*
X138168095Y-124198095D01*
X139358571Y-123912380D02*
X139453809Y-123912380D01*
X139549047Y-123960000D01*
X139596666Y-124007619D01*
X139644285Y-124102857D01*
X139691904Y-124293333D01*
X139691904Y-124531428D01*
X139644285Y-124721904D01*
X139596666Y-124817142D01*
X139549047Y-124864761D01*
X139453809Y-124912380D01*
X139358571Y-124912380D01*
X139263333Y-124864761D01*
X139215714Y-124817142D01*
X139168095Y-124721904D01*
X139120476Y-124531428D01*
X139120476Y-124293333D01*
X139168095Y-124102857D01*
X139215714Y-124007619D01*
X139263333Y-123960000D01*
X139358571Y-123912380D01*
X141978095Y-124807380D02*
X141978095Y-123807380D01*
X142549523Y-124807380D02*
X142120952Y-124235952D01*
X142549523Y-123807380D02*
X141978095Y-124378809D01*
%TO.C,D9*%
X118641904Y-124912380D02*
X118641904Y-123912380D01*
X118880000Y-123912380D01*
X119022857Y-123960000D01*
X119118095Y-124055238D01*
X119165714Y-124150476D01*
X119213333Y-124340952D01*
X119213333Y-124483809D01*
X119165714Y-124674285D01*
X119118095Y-124769523D01*
X119022857Y-124864761D01*
X118880000Y-124912380D01*
X118641904Y-124912380D01*
X119689523Y-124912380D02*
X119880000Y-124912380D01*
X119975238Y-124864761D01*
X120022857Y-124817142D01*
X120118095Y-124674285D01*
X120165714Y-124483809D01*
X120165714Y-124102857D01*
X120118095Y-124007619D01*
X120070476Y-123960000D01*
X119975238Y-123912380D01*
X119784761Y-123912380D01*
X119689523Y-123960000D01*
X119641904Y-124007619D01*
X119594285Y-124102857D01*
X119594285Y-124340952D01*
X119641904Y-124436190D01*
X119689523Y-124483809D01*
X119784761Y-124531428D01*
X119975238Y-124531428D01*
X120070476Y-124483809D01*
X120118095Y-124436190D01*
X120165714Y-124340952D01*
X122928095Y-124807380D02*
X122928095Y-123807380D01*
X123499523Y-124807380D02*
X123070952Y-124235952D01*
X123499523Y-123807380D02*
X122928095Y-124378809D01*
%TO.C,D8*%
X175791904Y-105862380D02*
X175791904Y-104862380D01*
X176030000Y-104862380D01*
X176172857Y-104910000D01*
X176268095Y-105005238D01*
X176315714Y-105100476D01*
X176363333Y-105290952D01*
X176363333Y-105433809D01*
X176315714Y-105624285D01*
X176268095Y-105719523D01*
X176172857Y-105814761D01*
X176030000Y-105862380D01*
X175791904Y-105862380D01*
X176934761Y-105290952D02*
X176839523Y-105243333D01*
X176791904Y-105195714D01*
X176744285Y-105100476D01*
X176744285Y-105052857D01*
X176791904Y-104957619D01*
X176839523Y-104910000D01*
X176934761Y-104862380D01*
X177125238Y-104862380D01*
X177220476Y-104910000D01*
X177268095Y-104957619D01*
X177315714Y-105052857D01*
X177315714Y-105100476D01*
X177268095Y-105195714D01*
X177220476Y-105243333D01*
X177125238Y-105290952D01*
X176934761Y-105290952D01*
X176839523Y-105338571D01*
X176791904Y-105386190D01*
X176744285Y-105481428D01*
X176744285Y-105671904D01*
X176791904Y-105767142D01*
X176839523Y-105814761D01*
X176934761Y-105862380D01*
X177125238Y-105862380D01*
X177220476Y-105814761D01*
X177268095Y-105767142D01*
X177315714Y-105671904D01*
X177315714Y-105481428D01*
X177268095Y-105386190D01*
X177220476Y-105338571D01*
X177125238Y-105290952D01*
X180078095Y-105757380D02*
X180078095Y-104757380D01*
X180649523Y-105757380D02*
X180220952Y-105185952D01*
X180649523Y-104757380D02*
X180078095Y-105328809D01*
%TO.C,D7*%
X156741904Y-105862380D02*
X156741904Y-104862380D01*
X156980000Y-104862380D01*
X157122857Y-104910000D01*
X157218095Y-105005238D01*
X157265714Y-105100476D01*
X157313333Y-105290952D01*
X157313333Y-105433809D01*
X157265714Y-105624285D01*
X157218095Y-105719523D01*
X157122857Y-105814761D01*
X156980000Y-105862380D01*
X156741904Y-105862380D01*
X157646666Y-104862380D02*
X158313333Y-104862380D01*
X157884761Y-105862380D01*
X161028095Y-105757380D02*
X161028095Y-104757380D01*
X161599523Y-105757380D02*
X161170952Y-105185952D01*
X161599523Y-104757380D02*
X161028095Y-105328809D01*
%TO.C,D6*%
X137691904Y-105862380D02*
X137691904Y-104862380D01*
X137930000Y-104862380D01*
X138072857Y-104910000D01*
X138168095Y-105005238D01*
X138215714Y-105100476D01*
X138263333Y-105290952D01*
X138263333Y-105433809D01*
X138215714Y-105624285D01*
X138168095Y-105719523D01*
X138072857Y-105814761D01*
X137930000Y-105862380D01*
X137691904Y-105862380D01*
X139120476Y-104862380D02*
X138930000Y-104862380D01*
X138834761Y-104910000D01*
X138787142Y-104957619D01*
X138691904Y-105100476D01*
X138644285Y-105290952D01*
X138644285Y-105671904D01*
X138691904Y-105767142D01*
X138739523Y-105814761D01*
X138834761Y-105862380D01*
X139025238Y-105862380D01*
X139120476Y-105814761D01*
X139168095Y-105767142D01*
X139215714Y-105671904D01*
X139215714Y-105433809D01*
X139168095Y-105338571D01*
X139120476Y-105290952D01*
X139025238Y-105243333D01*
X138834761Y-105243333D01*
X138739523Y-105290952D01*
X138691904Y-105338571D01*
X138644285Y-105433809D01*
X141978095Y-105757380D02*
X141978095Y-104757380D01*
X142549523Y-105757380D02*
X142120952Y-105185952D01*
X142549523Y-104757380D02*
X141978095Y-105328809D01*
%TO.C,D5*%
X118641904Y-105862380D02*
X118641904Y-104862380D01*
X118880000Y-104862380D01*
X119022857Y-104910000D01*
X119118095Y-105005238D01*
X119165714Y-105100476D01*
X119213333Y-105290952D01*
X119213333Y-105433809D01*
X119165714Y-105624285D01*
X119118095Y-105719523D01*
X119022857Y-105814761D01*
X118880000Y-105862380D01*
X118641904Y-105862380D01*
X120118095Y-104862380D02*
X119641904Y-104862380D01*
X119594285Y-105338571D01*
X119641904Y-105290952D01*
X119737142Y-105243333D01*
X119975238Y-105243333D01*
X120070476Y-105290952D01*
X120118095Y-105338571D01*
X120165714Y-105433809D01*
X120165714Y-105671904D01*
X120118095Y-105767142D01*
X120070476Y-105814761D01*
X119975238Y-105862380D01*
X119737142Y-105862380D01*
X119641904Y-105814761D01*
X119594285Y-105767142D01*
X122928095Y-105757380D02*
X122928095Y-104757380D01*
X123499523Y-105757380D02*
X123070952Y-105185952D01*
X123499523Y-104757380D02*
X122928095Y-105328809D01*
%TO.C,D4*%
X175791904Y-86812380D02*
X175791904Y-85812380D01*
X176030000Y-85812380D01*
X176172857Y-85860000D01*
X176268095Y-85955238D01*
X176315714Y-86050476D01*
X176363333Y-86240952D01*
X176363333Y-86383809D01*
X176315714Y-86574285D01*
X176268095Y-86669523D01*
X176172857Y-86764761D01*
X176030000Y-86812380D01*
X175791904Y-86812380D01*
X177220476Y-86145714D02*
X177220476Y-86812380D01*
X176982380Y-85764761D02*
X176744285Y-86479047D01*
X177363333Y-86479047D01*
X180078095Y-86707380D02*
X180078095Y-85707380D01*
X180649523Y-86707380D02*
X180220952Y-86135952D01*
X180649523Y-85707380D02*
X180078095Y-86278809D01*
%TO.C,D3*%
X156741904Y-86812380D02*
X156741904Y-85812380D01*
X156980000Y-85812380D01*
X157122857Y-85860000D01*
X157218095Y-85955238D01*
X157265714Y-86050476D01*
X157313333Y-86240952D01*
X157313333Y-86383809D01*
X157265714Y-86574285D01*
X157218095Y-86669523D01*
X157122857Y-86764761D01*
X156980000Y-86812380D01*
X156741904Y-86812380D01*
X157646666Y-85812380D02*
X158265714Y-85812380D01*
X157932380Y-86193333D01*
X158075238Y-86193333D01*
X158170476Y-86240952D01*
X158218095Y-86288571D01*
X158265714Y-86383809D01*
X158265714Y-86621904D01*
X158218095Y-86717142D01*
X158170476Y-86764761D01*
X158075238Y-86812380D01*
X157789523Y-86812380D01*
X157694285Y-86764761D01*
X157646666Y-86717142D01*
X161028095Y-86707380D02*
X161028095Y-85707380D01*
X161599523Y-86707380D02*
X161170952Y-86135952D01*
X161599523Y-85707380D02*
X161028095Y-86278809D01*
%TO.C,D2*%
X137691904Y-86812380D02*
X137691904Y-85812380D01*
X137930000Y-85812380D01*
X138072857Y-85860000D01*
X138168095Y-85955238D01*
X138215714Y-86050476D01*
X138263333Y-86240952D01*
X138263333Y-86383809D01*
X138215714Y-86574285D01*
X138168095Y-86669523D01*
X138072857Y-86764761D01*
X137930000Y-86812380D01*
X137691904Y-86812380D01*
X138644285Y-85907619D02*
X138691904Y-85860000D01*
X138787142Y-85812380D01*
X139025238Y-85812380D01*
X139120476Y-85860000D01*
X139168095Y-85907619D01*
X139215714Y-86002857D01*
X139215714Y-86098095D01*
X139168095Y-86240952D01*
X138596666Y-86812380D01*
X139215714Y-86812380D01*
X141978095Y-86707380D02*
X141978095Y-85707380D01*
X142549523Y-86707380D02*
X142120952Y-86135952D01*
X142549523Y-85707380D02*
X141978095Y-86278809D01*
%TO.C,D1*%
X118641904Y-86812380D02*
X118641904Y-85812380D01*
X118880000Y-85812380D01*
X119022857Y-85860000D01*
X119118095Y-85955238D01*
X119165714Y-86050476D01*
X119213333Y-86240952D01*
X119213333Y-86383809D01*
X119165714Y-86574285D01*
X119118095Y-86669523D01*
X119022857Y-86764761D01*
X118880000Y-86812380D01*
X118641904Y-86812380D01*
X120165714Y-86812380D02*
X119594285Y-86812380D01*
X119880000Y-86812380D02*
X119880000Y-85812380D01*
X119784761Y-85955238D01*
X119689523Y-86050476D01*
X119594285Y-86098095D01*
X122928095Y-86707380D02*
X122928095Y-85707380D01*
X123499523Y-86707380D02*
X123070952Y-86135952D01*
X123499523Y-85707380D02*
X122928095Y-86278809D01*
%TD*%
M02*
