%TF.GenerationSoftware,KiCad,Pcbnew,(5.1.10)-1*%
%TF.CreationDate,2021-11-04T23:56:30-04:00*%
%TF.ProjectId,pluto12,706c7574-6f31-4322-9e6b-696361645f70,rev?*%
%TF.SameCoordinates,Original*%
%TF.FileFunction,Legend,Bot*%
%TF.FilePolarity,Positive*%
%FSLAX46Y46*%
G04 Gerber Fmt 4.6, Leading zero omitted, Abs format (unit mm)*
G04 Created by KiCad (PCBNEW (5.1.10)-1) date 2021-11-04 23:56:30*
%MOMM*%
%LPD*%
G01*
G04 APERTURE LIST*
%ADD10C,0.152400*%
%ADD11C,0.100000*%
%ADD12C,0.120000*%
%ADD13C,0.150000*%
G04 APERTURE END LIST*
D10*
X175302333Y-64652071D02*
X175302333Y-63509071D01*
X174915285Y-63509071D01*
X174818523Y-63563500D01*
X174770142Y-63617928D01*
X174721761Y-63726785D01*
X174721761Y-63890071D01*
X174770142Y-63998928D01*
X174818523Y-64053357D01*
X174915285Y-64107785D01*
X175302333Y-64107785D01*
X173899285Y-64597642D02*
X173996047Y-64652071D01*
X174189571Y-64652071D01*
X174286333Y-64597642D01*
X174334714Y-64488785D01*
X174334714Y-64053357D01*
X174286333Y-63944500D01*
X174189571Y-63890071D01*
X173996047Y-63890071D01*
X173899285Y-63944500D01*
X173850904Y-64053357D01*
X173850904Y-64162214D01*
X174334714Y-64271071D01*
X173415476Y-63890071D02*
X173415476Y-64652071D01*
X173415476Y-63998928D02*
X173367095Y-63944500D01*
X173270333Y-63890071D01*
X173125190Y-63890071D01*
X173028428Y-63944500D01*
X172980047Y-64053357D01*
X172980047Y-64652071D01*
X172496238Y-63890071D02*
X172496238Y-64652071D01*
X172496238Y-63998928D02*
X172447857Y-63944500D01*
X172351095Y-63890071D01*
X172205952Y-63890071D01*
X172109190Y-63944500D01*
X172060809Y-64053357D01*
X172060809Y-64652071D01*
X170851285Y-64597642D02*
X170706142Y-64652071D01*
X170464238Y-64652071D01*
X170367476Y-64597642D01*
X170319095Y-64543214D01*
X170270714Y-64434357D01*
X170270714Y-64325500D01*
X170319095Y-64216642D01*
X170367476Y-64162214D01*
X170464238Y-64107785D01*
X170657761Y-64053357D01*
X170754523Y-63998928D01*
X170802904Y-63944500D01*
X170851285Y-63835642D01*
X170851285Y-63726785D01*
X170802904Y-63617928D01*
X170754523Y-63563500D01*
X170657761Y-63509071D01*
X170415857Y-63509071D01*
X170270714Y-63563500D01*
X169980428Y-63890071D02*
X169593380Y-63890071D01*
X169835285Y-63509071D02*
X169835285Y-64488785D01*
X169786904Y-64597642D01*
X169690142Y-64652071D01*
X169593380Y-64652071D01*
X168819285Y-64652071D02*
X168819285Y-64053357D01*
X168867666Y-63944500D01*
X168964428Y-63890071D01*
X169157952Y-63890071D01*
X169254714Y-63944500D01*
X168819285Y-64597642D02*
X168916047Y-64652071D01*
X169157952Y-64652071D01*
X169254714Y-64597642D01*
X169303095Y-64488785D01*
X169303095Y-64379928D01*
X169254714Y-64271071D01*
X169157952Y-64216642D01*
X168916047Y-64216642D01*
X168819285Y-64162214D01*
X168480619Y-63890071D02*
X168093571Y-63890071D01*
X168335476Y-63509071D02*
X168335476Y-64488785D01*
X168287095Y-64597642D01*
X168190333Y-64652071D01*
X168093571Y-64652071D01*
X167367857Y-64597642D02*
X167464619Y-64652071D01*
X167658142Y-64652071D01*
X167754904Y-64597642D01*
X167803285Y-64488785D01*
X167803285Y-64053357D01*
X167754904Y-63944500D01*
X167658142Y-63890071D01*
X167464619Y-63890071D01*
X167367857Y-63944500D01*
X167319476Y-64053357D01*
X167319476Y-64162214D01*
X167803285Y-64271071D01*
X166109952Y-64652071D02*
X166109952Y-63509071D01*
X165626142Y-64053357D02*
X165287476Y-64053357D01*
X165142333Y-64652071D02*
X165626142Y-64652071D01*
X165626142Y-63509071D01*
X165142333Y-63509071D01*
X164706904Y-64053357D02*
X164368238Y-64053357D01*
X164223095Y-64652071D02*
X164706904Y-64652071D01*
X164706904Y-63509071D01*
X164223095Y-63509071D01*
X163787666Y-64053357D02*
X163449000Y-64053357D01*
X163303857Y-64652071D02*
X163787666Y-64652071D01*
X163787666Y-63509071D01*
X163303857Y-63509071D01*
X162142714Y-63617928D02*
X162094333Y-63563500D01*
X161997571Y-63509071D01*
X161755666Y-63509071D01*
X161658904Y-63563500D01*
X161610523Y-63617928D01*
X161562142Y-63726785D01*
X161562142Y-63835642D01*
X161610523Y-63998928D01*
X162191095Y-64652071D01*
X161562142Y-64652071D01*
X160933190Y-63509071D02*
X160836428Y-63509071D01*
X160739666Y-63563500D01*
X160691285Y-63617928D01*
X160642904Y-63726785D01*
X160594523Y-63944500D01*
X160594523Y-64216642D01*
X160642904Y-64434357D01*
X160691285Y-64543214D01*
X160739666Y-64597642D01*
X160836428Y-64652071D01*
X160933190Y-64652071D01*
X161029952Y-64597642D01*
X161078333Y-64543214D01*
X161126714Y-64434357D01*
X161175095Y-64216642D01*
X161175095Y-63944500D01*
X161126714Y-63726785D01*
X161078333Y-63617928D01*
X161029952Y-63563500D01*
X160933190Y-63509071D01*
X160207476Y-63617928D02*
X160159095Y-63563500D01*
X160062333Y-63509071D01*
X159820428Y-63509071D01*
X159723666Y-63563500D01*
X159675285Y-63617928D01*
X159626904Y-63726785D01*
X159626904Y-63835642D01*
X159675285Y-63998928D01*
X160255857Y-64652071D01*
X159626904Y-64652071D01*
X158659285Y-64652071D02*
X159239857Y-64652071D01*
X158949571Y-64652071D02*
X158949571Y-63509071D01*
X159046333Y-63672357D01*
X159143095Y-63781214D01*
X159239857Y-63835642D01*
X138931952Y-66593357D02*
X138786809Y-66647785D01*
X138738428Y-66702214D01*
X138690047Y-66811071D01*
X138690047Y-66974357D01*
X138738428Y-67083214D01*
X138786809Y-67137642D01*
X138883571Y-67192071D01*
X139270619Y-67192071D01*
X139270619Y-66049071D01*
X138931952Y-66049071D01*
X138835190Y-66103500D01*
X138786809Y-66157928D01*
X138738428Y-66266785D01*
X138738428Y-66375642D01*
X138786809Y-66484500D01*
X138835190Y-66538928D01*
X138931952Y-66593357D01*
X139270619Y-66593357D01*
X137819190Y-66430071D02*
X137819190Y-67192071D01*
X138254619Y-66430071D02*
X138254619Y-67028785D01*
X138206238Y-67137642D01*
X138109476Y-67192071D01*
X137964333Y-67192071D01*
X137867571Y-67137642D01*
X137819190Y-67083214D01*
X137335380Y-67192071D02*
X137335380Y-66430071D01*
X137335380Y-66049071D02*
X137383761Y-66103500D01*
X137335380Y-66157928D01*
X137287000Y-66103500D01*
X137335380Y-66049071D01*
X137335380Y-66157928D01*
X136706428Y-67192071D02*
X136803190Y-67137642D01*
X136851571Y-67028785D01*
X136851571Y-66049071D01*
X135883952Y-67192071D02*
X135883952Y-66049071D01*
X135883952Y-67137642D02*
X135980714Y-67192071D01*
X136174238Y-67192071D01*
X136271000Y-67137642D01*
X136319380Y-67083214D01*
X136367761Y-66974357D01*
X136367761Y-66647785D01*
X136319380Y-66538928D01*
X136271000Y-66484500D01*
X136174238Y-66430071D01*
X135980714Y-66430071D01*
X135883952Y-66484500D01*
X134626047Y-67192071D02*
X134626047Y-66049071D01*
X134384142Y-66049071D01*
X134239000Y-66103500D01*
X134142238Y-66212357D01*
X134093857Y-66321214D01*
X134045476Y-66538928D01*
X134045476Y-66702214D01*
X134093857Y-66919928D01*
X134142238Y-67028785D01*
X134239000Y-67137642D01*
X134384142Y-67192071D01*
X134626047Y-67192071D01*
X133174619Y-67192071D02*
X133174619Y-66593357D01*
X133223000Y-66484500D01*
X133319761Y-66430071D01*
X133513285Y-66430071D01*
X133610047Y-66484500D01*
X133174619Y-67137642D02*
X133271380Y-67192071D01*
X133513285Y-67192071D01*
X133610047Y-67137642D01*
X133658428Y-67028785D01*
X133658428Y-66919928D01*
X133610047Y-66811071D01*
X133513285Y-66756642D01*
X133271380Y-66756642D01*
X133174619Y-66702214D01*
X132835952Y-66430071D02*
X132448904Y-66430071D01*
X132690809Y-66049071D02*
X132690809Y-67028785D01*
X132642428Y-67137642D01*
X132545666Y-67192071D01*
X132448904Y-67192071D01*
X131723190Y-67137642D02*
X131819952Y-67192071D01*
X132013476Y-67192071D01*
X132110238Y-67137642D01*
X132158619Y-67028785D01*
X132158619Y-66593357D01*
X132110238Y-66484500D01*
X132013476Y-66430071D01*
X131819952Y-66430071D01*
X131723190Y-66484500D01*
X131674809Y-66593357D01*
X131674809Y-66702214D01*
X132158619Y-66811071D01*
X131239380Y-67083214D02*
X131191000Y-67137642D01*
X131239380Y-67192071D01*
X131287761Y-67137642D01*
X131239380Y-67083214D01*
X131239380Y-67192071D01*
X131239380Y-66484500D02*
X131191000Y-66538928D01*
X131239380Y-66593357D01*
X131287761Y-66538928D01*
X131239380Y-66484500D01*
X131239380Y-66593357D01*
D11*
G36*
X128905000Y-67945000D02*
G01*
X116205000Y-67945000D01*
X116205000Y-65405000D01*
X128905000Y-65405000D01*
X128905000Y-67945000D01*
G37*
X128905000Y-67945000D02*
X116205000Y-67945000D01*
X116205000Y-65405000D01*
X128905000Y-65405000D01*
X128905000Y-67945000D01*
D12*
X141605000Y-65405000D02*
X116205000Y-65405000D01*
X141605000Y-67945000D02*
X141605000Y-62865000D01*
X116205000Y-67945000D02*
X141605000Y-67945000D01*
X116205000Y-62865000D02*
X116205000Y-67945000D01*
X141605000Y-62865000D02*
X116205000Y-62865000D01*
D10*
X138049000Y-63890071D02*
X138049000Y-65033071D01*
X138049000Y-63944500D02*
X137952238Y-63890071D01*
X137758714Y-63890071D01*
X137661952Y-63944500D01*
X137613571Y-63998928D01*
X137565190Y-64107785D01*
X137565190Y-64434357D01*
X137613571Y-64543214D01*
X137661952Y-64597642D01*
X137758714Y-64652071D01*
X137952238Y-64652071D01*
X138049000Y-64597642D01*
X136984619Y-64652071D02*
X137081380Y-64597642D01*
X137129761Y-64488785D01*
X137129761Y-63509071D01*
X136162142Y-63890071D02*
X136162142Y-64652071D01*
X136597571Y-63890071D02*
X136597571Y-64488785D01*
X136549190Y-64597642D01*
X136452428Y-64652071D01*
X136307285Y-64652071D01*
X136210523Y-64597642D01*
X136162142Y-64543214D01*
X135823476Y-63890071D02*
X135436428Y-63890071D01*
X135678333Y-63509071D02*
X135678333Y-64488785D01*
X135629952Y-64597642D01*
X135533190Y-64652071D01*
X135436428Y-64652071D01*
X134952619Y-64652071D02*
X135049380Y-64597642D01*
X135097761Y-64543214D01*
X135146142Y-64434357D01*
X135146142Y-64107785D01*
X135097761Y-63998928D01*
X135049380Y-63944500D01*
X134952619Y-63890071D01*
X134807476Y-63890071D01*
X134710714Y-63944500D01*
X134662333Y-63998928D01*
X134613952Y-64107785D01*
X134613952Y-64434357D01*
X134662333Y-64543214D01*
X134710714Y-64597642D01*
X134807476Y-64652071D01*
X134952619Y-64652071D01*
X133646333Y-64652071D02*
X134226904Y-64652071D01*
X133936619Y-64652071D02*
X133936619Y-63509071D01*
X134033380Y-63672357D01*
X134130142Y-63781214D01*
X134226904Y-63835642D01*
X133259285Y-63617928D02*
X133210904Y-63563500D01*
X133114142Y-63509071D01*
X132872238Y-63509071D01*
X132775476Y-63563500D01*
X132727095Y-63617928D01*
X132678714Y-63726785D01*
X132678714Y-63835642D01*
X132727095Y-63998928D01*
X133307666Y-64652071D01*
X132678714Y-64652071D01*
X131469190Y-64216642D02*
X130695095Y-64216642D01*
X129533952Y-63890071D02*
X129292047Y-64652071D01*
X129050142Y-63890071D01*
X128469571Y-63509071D02*
X128372809Y-63509071D01*
X128276047Y-63563500D01*
X128227666Y-63617928D01*
X128179285Y-63726785D01*
X128130904Y-63944500D01*
X128130904Y-64216642D01*
X128179285Y-64434357D01*
X128227666Y-64543214D01*
X128276047Y-64597642D01*
X128372809Y-64652071D01*
X128469571Y-64652071D01*
X128566333Y-64597642D01*
X128614714Y-64543214D01*
X128663095Y-64434357D01*
X128711476Y-64216642D01*
X128711476Y-63944500D01*
X128663095Y-63726785D01*
X128614714Y-63617928D01*
X128566333Y-63563500D01*
X128469571Y-63509071D01*
X127695476Y-64543214D02*
X127647095Y-64597642D01*
X127695476Y-64652071D01*
X127743857Y-64597642D01*
X127695476Y-64543214D01*
X127695476Y-64652071D01*
X126679476Y-64652071D02*
X127260047Y-64652071D01*
X126969761Y-64652071D02*
X126969761Y-63509071D01*
X127066523Y-63672357D01*
X127163285Y-63781214D01*
X127260047Y-63835642D01*
X125469952Y-64216642D02*
X124695857Y-64216642D01*
X123486333Y-64325500D02*
X123002523Y-64325500D01*
X123583095Y-64652071D02*
X123244428Y-63509071D01*
X122905761Y-64652071D01*
X122421952Y-64652071D02*
X122518714Y-64597642D01*
X122567095Y-64488785D01*
X122567095Y-63509071D01*
X122034904Y-63890071D02*
X122034904Y-65033071D01*
X122034904Y-63944500D02*
X121938142Y-63890071D01*
X121744619Y-63890071D01*
X121647857Y-63944500D01*
X121599476Y-63998928D01*
X121551095Y-64107785D01*
X121551095Y-64434357D01*
X121599476Y-64543214D01*
X121647857Y-64597642D01*
X121744619Y-64652071D01*
X121938142Y-64652071D01*
X122034904Y-64597642D01*
X121115666Y-64652071D02*
X121115666Y-63509071D01*
X120680238Y-64652071D02*
X120680238Y-64053357D01*
X120728619Y-63944500D01*
X120825380Y-63890071D01*
X120970523Y-63890071D01*
X121067285Y-63944500D01*
X121115666Y-63998928D01*
X119760999Y-64652071D02*
X119760999Y-64053357D01*
X119809380Y-63944500D01*
X119906142Y-63890071D01*
X120099666Y-63890071D01*
X120196428Y-63944500D01*
X119760999Y-64597642D02*
X119857761Y-64652071D01*
X120099666Y-64652071D01*
X120196428Y-64597642D01*
X120244809Y-64488785D01*
X120244809Y-64379928D01*
X120196428Y-64271071D01*
X120099666Y-64216642D01*
X119857761Y-64216642D01*
X119760999Y-64162214D01*
D12*
%TO.C,RST SW*%
X144805000Y-69325000D02*
X144805000Y-69775000D01*
X151105000Y-69775000D02*
X151105000Y-69325000D01*
X144805000Y-69775000D02*
X151105000Y-69775000D01*
X151105000Y-68025000D02*
X151105000Y-65325000D01*
X144805000Y-65325000D02*
X144805000Y-68025000D01*
X151105000Y-63575000D02*
X151105000Y-63975000D01*
X144805000Y-63575000D02*
X151105000Y-63575000D01*
X144805000Y-64025000D02*
X144805000Y-63575000D01*
D13*
X149931190Y-71027380D02*
X150264523Y-70551190D01*
X150502619Y-71027380D02*
X150502619Y-70027380D01*
X150121666Y-70027380D01*
X150026428Y-70075000D01*
X149978809Y-70122619D01*
X149931190Y-70217857D01*
X149931190Y-70360714D01*
X149978809Y-70455952D01*
X150026428Y-70503571D01*
X150121666Y-70551190D01*
X150502619Y-70551190D01*
X149550238Y-70979761D02*
X149407380Y-71027380D01*
X149169285Y-71027380D01*
X149074047Y-70979761D01*
X149026428Y-70932142D01*
X148978809Y-70836904D01*
X148978809Y-70741666D01*
X149026428Y-70646428D01*
X149074047Y-70598809D01*
X149169285Y-70551190D01*
X149359761Y-70503571D01*
X149455000Y-70455952D01*
X149502619Y-70408333D01*
X149550238Y-70313095D01*
X149550238Y-70217857D01*
X149502619Y-70122619D01*
X149455000Y-70075000D01*
X149359761Y-70027380D01*
X149121666Y-70027380D01*
X148978809Y-70075000D01*
X148693095Y-70027380D02*
X148121666Y-70027380D01*
X148407380Y-71027380D02*
X148407380Y-70027380D01*
X147074047Y-70979761D02*
X146931190Y-71027380D01*
X146693095Y-71027380D01*
X146597857Y-70979761D01*
X146550238Y-70932142D01*
X146502619Y-70836904D01*
X146502619Y-70741666D01*
X146550238Y-70646428D01*
X146597857Y-70598809D01*
X146693095Y-70551190D01*
X146883571Y-70503571D01*
X146978809Y-70455952D01*
X147026428Y-70408333D01*
X147074047Y-70313095D01*
X147074047Y-70217857D01*
X147026428Y-70122619D01*
X146978809Y-70075000D01*
X146883571Y-70027380D01*
X146645476Y-70027380D01*
X146502619Y-70075000D01*
X146169285Y-70027380D02*
X145931190Y-71027380D01*
X145740714Y-70313095D01*
X145550238Y-71027380D01*
X145312142Y-70027380D01*
%TO.C,B1*%
X176934761Y-70286571D02*
X176791904Y-70334190D01*
X176744285Y-70381809D01*
X176696666Y-70477047D01*
X176696666Y-70619904D01*
X176744285Y-70715142D01*
X176791904Y-70762761D01*
X176887142Y-70810380D01*
X177268095Y-70810380D01*
X177268095Y-69810380D01*
X176934761Y-69810380D01*
X176839523Y-69858000D01*
X176791904Y-69905619D01*
X176744285Y-70000857D01*
X176744285Y-70096095D01*
X176791904Y-70191333D01*
X176839523Y-70238952D01*
X176934761Y-70286571D01*
X177268095Y-70286571D01*
X175744285Y-70810380D02*
X176315714Y-70810380D01*
X176030000Y-70810380D02*
X176030000Y-69810380D01*
X176125238Y-69953238D01*
X176220476Y-70048476D01*
X176315714Y-70096095D01*
%TD*%
M02*
