M48
INCH,TZ
T1C0.0300
T2C0.0315
T3C0.0591
T4C0.1181
T5C0.0669
T6C0.1575
%
G90
G05
T1
X66500Y-27200
X66500Y-28200
X66500Y-29200
X66500Y-30200
X66500Y-31200
X66500Y-32200
X66500Y-33200
X66500Y-34200
X66500Y-35200
X66500Y-36200
X66500Y-37200
X66500Y-38200
X72500Y-27200
X72500Y-28200
X72500Y-29200
X72500Y-30200
X72500Y-31200
X72500Y-32200
X72500Y-33200
X72500Y-34200
X72500Y-35200
X72500Y-36200
X72500Y-37200
X72500Y-38200
T2
X45500Y-33250
X45500Y-40750
X45500Y-48250
X48500Y-33250
X48500Y-40750
X48500Y-48250
X53000Y-33250
X53000Y-40750
X53000Y-48250
X56000Y-33250
X56000Y-40750
X56000Y-48250
X60500Y-33250
X60500Y-40750
X60500Y-48250
X63500Y-33250
X63500Y-40750
X63500Y-48250
X68000Y-33250
X68000Y-40750
X68000Y-48250
X71000Y-33250
X71000Y-40750
X71000Y-48250
T3
X45500Y-28500
X45500Y-36000
X45500Y-43500
X48000Y-27500
X48000Y-35000
X48000Y-42500
X53000Y-28500
X53000Y-36000
X53000Y-43500
X55500Y-27500
X55500Y-35000
X55500Y-42500
X60500Y-28500
X60500Y-36000
X60500Y-43500
X63000Y-27500
X63000Y-35000
X63000Y-42500
X68000Y-28500
X68000Y-36000
X68000Y-43500
X70500Y-27500
X70500Y-35000
X70500Y-42500
T4
X43000Y-25500
X43000Y-48500
X73500Y-25500
X73500Y-48500
T5
X45000Y-29500
X45000Y-37000
X45000Y-44500
X49000Y-29500
X49000Y-37000
X49000Y-44500
X52500Y-29500
X52500Y-37000
X52500Y-44500
X56500Y-29500
X56500Y-37000
X56500Y-44500
X60000Y-29500
X60000Y-37000
X60000Y-44500
X64000Y-29500
X64000Y-37000
X64000Y-44500
X67500Y-29500
X67500Y-37000
X67500Y-44500
X71500Y-29500
X71500Y-37000
X71500Y-44500
T6
X47000Y-29500
X47000Y-37000
X47000Y-44500
X54500Y-29500
X54500Y-37000
X54500Y-44500
X62000Y-29500
X62000Y-37000
X62000Y-44500
X69500Y-29500
X69500Y-37000
X69500Y-44500
T0
M30
